<?xml version="1.0" standalone="no"?>
<!DOCTYPE svg PUBLIC "-//W3C//DTD SVG 20010904//EN"
 "http://www.w3.org/TR/2001/REC-SVG-20010904/DTD/svg10.dtd">
<svg version="1.0" xmlns="http://www.w3.org/2000/svg"
 width="2893.000000pt" height="4092.000000pt" viewBox="0 0 2893.000000 4092.000000"
 preserveAspectRatio="xMidYMid meet">

<g transform="translate(0.000000,4092.000000) scale(0.100000,-0.100000)"
fill="#000000" stroke="none">
<path d="M7750 28674 c-228 -31 -449 -145 -600 -310 -66 -73 -103 -128 -150
-222 -100 -204 -126 -406 -79 -630 11 -56 5032 -14642 5068 -14725 63 -146
215 -316 360 -405 100 -61 220 -106 339 -128 125 -22 361 -20 477 4 294 63
526 238 655 497 37 74 691 1963 2560 7394 1381 4012 2518 7324 2526 7360 9 36
18 90 20 121 3 30 7 60 9 66 8 25 -27 240 -52 317 -118 377 -425 620 -841 667
-95 10 -260 -10 -367 -45 -240 -79 -441 -248 -556 -468 -27 -52 -717 -2043
-2110 -6087 -1138 -3306 -2075 -6025 -2082 -6043 l-14 -32 -35 105 c-165 486
-4115 11947 -4134 11994 -65 161 -194 316 -347 417 -191 125 -434 183 -647
153z"/>
<path d="M21355 28674 c-319 -41 -591 -229 -736 -508 -48 -92 -5080 -14695
-5100 -14798 -15 -81 -15 -266 0 -343 73 -369 326 -645 686 -750 438 -127 915
78 1115 480 37 74 699 1986 2564 7405 1382 4018 2519 7330 2526 7360 6 30 13
82 16 114 2 32 7 62 9 66 9 15 -27 237 -52 315 -107 340 -380 579 -738 648
-122 23 -181 26 -290 11z"/>
<path d="M12805 23954 c-346 -54 -622 -274 -744 -596 -41 -105 -54 -183 -53
-318 0 -306 145 -576 400 -749 158 -106 405 -171 578 -150 407 49 702 294 806
667 28 101 28 108 29 237 3 403 -243 745 -626 870 -58 19 -286 60 -298 54 -1
-1 -42 -8 -92 -15z"/>
</g>
</svg>
